<svg width="18" height="18" viewBox="0 0 18 18" fill="none" xmlns="http://www.w3.org/2000/svg">
<path d="M16.3125 2.8125H1.6875C1.37637 2.8125 1.125 3.06387 1.125 3.375V14.625C1.125 14.9361 1.37637 15.1875 1.6875 15.1875H16.3125C16.6236 15.1875 16.875 14.9361 16.875 14.625V3.375C16.875 3.06387 16.6236 2.8125 16.3125 2.8125ZM15.6094 4.76016V13.9219H2.39062V4.76016L1.90547 4.38223L2.59629 3.49453L3.34863 4.07988H14.6531L15.4055 3.49453L16.0963 4.38223L15.6094 4.76016ZM14.6531 4.07812L9 8.47266L3.34687 4.07812L2.59453 3.49277L1.90371 4.38047L2.38887 4.7584L8.39355 9.42715C8.56624 9.56131 8.77869 9.63413 8.99736 9.63413C9.21604 9.63413 9.42849 9.56131 9.60117 9.42715L15.6094 4.76016L16.0945 4.38223L15.4037 3.49453L14.6531 4.07812Z" fill="#3F51B5"/>
</svg>
